<mxfile host="65bd71144e">
    <diagram id="wZ7_Si7Yi4G5rwHa30gV" name="Page-1">
        <mxGraphModel dx="1069" dy="647" grid="1" gridSize="10" guides="1" tooltips="1" connect="1" arrows="1" fold="1" page="1" pageScale="1" pageWidth="1654" pageHeight="2336" math="0" shadow="0">
            <root>
                <mxCell id="0"/>
                <mxCell id="1" parent="0"/>
                <mxCell id="17" value="" style="rounded=0;whiteSpace=wrap;html=1;fillColor=#eeeeee;strokeColor=none;" vertex="1" parent="1">
                    <mxGeometry x="70" y="120" width="530" height="230" as="geometry"/>
                </mxCell>
                <mxCell id="2" value="Xcom" style="rounded=0;whiteSpace=wrap;html=1;fillColor=#f9f7ed;strokeColor=#36393d;fontColor=#000000;" vertex="1" parent="1">
                    <mxGeometry x="110" y="160" width="450" height="50" as="geometry"/>
                </mxCell>
                <mxCell id="3" value="Task 1" style="rounded=1;whiteSpace=wrap;html=1;fillColor=#cce5ff;strokeColor=#36393d;fontColor=#000000;" vertex="1" parent="1">
                    <mxGeometry x="110" y="280" width="120" height="40" as="geometry"/>
                </mxCell>
                <mxCell id="4" value="Task 1" style="rounded=1;whiteSpace=wrap;html=1;fillColor=#cce5ff;strokeColor=#36393d;fontColor=#000000;" vertex="1" parent="1">
                    <mxGeometry x="280" y="280" width="120" height="40" as="geometry"/>
                </mxCell>
                <mxCell id="5" value="Task 1" style="rounded=1;whiteSpace=wrap;html=1;fillColor=#cce5ff;strokeColor=#36393d;fontColor=#000000;" vertex="1" parent="1">
                    <mxGeometry x="440" y="280" width="120" height="40" as="geometry"/>
                </mxCell>
                <mxCell id="7" value="" style="endArrow=classic;html=1;exitX=0.5;exitY=0;exitDx=0;exitDy=0;entryX=0.25;entryY=1;entryDx=0;entryDy=0;dashed=1;" edge="1" parent="1" source="3" target="2">
                    <mxGeometry width="50" height="50" relative="1" as="geometry">
                        <mxPoint x="640" y="360" as="sourcePoint"/>
                        <mxPoint x="690" y="310" as="targetPoint"/>
                    </mxGeometry>
                </mxCell>
                <mxCell id="9" value="" style="endArrow=classic;html=1;exitX=0.5;exitY=0;exitDx=0;exitDy=0;entryX=0.75;entryY=1;entryDx=0;entryDy=0;dashed=1;" edge="1" parent="1" source="5" target="2">
                    <mxGeometry width="50" height="50" relative="1" as="geometry">
                        <mxPoint x="180" y="290" as="sourcePoint"/>
                        <mxPoint x="232.5" y="220" as="targetPoint"/>
                    </mxGeometry>
                </mxCell>
                <mxCell id="10" value="" style="endArrow=classic;html=1;fontColor=#000000;exitX=1;exitY=0.5;exitDx=0;exitDy=0;" edge="1" parent="1" source="3">
                    <mxGeometry width="50" height="50" relative="1" as="geometry">
                        <mxPoint x="520" y="360" as="sourcePoint"/>
                        <mxPoint x="280" y="300" as="targetPoint"/>
                    </mxGeometry>
                </mxCell>
                <mxCell id="11" value="" style="endArrow=classic;html=1;fontColor=#000000;exitX=1;exitY=0.5;exitDx=0;exitDy=0;entryX=0;entryY=0.5;entryDx=0;entryDy=0;" edge="1" parent="1" source="4" target="5">
                    <mxGeometry width="50" height="50" relative="1" as="geometry">
                        <mxPoint x="240" y="310" as="sourcePoint"/>
                        <mxPoint x="290" y="310" as="targetPoint"/>
                    </mxGeometry>
                </mxCell>
                <mxCell id="13" value="xcom_push" style="text;html=1;strokeColor=none;fillColor=none;align=center;verticalAlign=middle;whiteSpace=wrap;rounded=0;fontColor=#000000;" vertex="1" parent="1">
                    <mxGeometry x="170" y="230" width="60" height="30" as="geometry"/>
                </mxCell>
                <mxCell id="14" value="xcom_pull" style="text;html=1;strokeColor=none;fillColor=none;align=center;verticalAlign=middle;whiteSpace=wrap;rounded=0;fontColor=#000000;" vertex="1" parent="1">
                    <mxGeometry x="440" y="230" width="60" height="30" as="geometry"/>
                </mxCell>
            </root>
        </mxGraphModel>
    </diagram>
</mxfile>